<svg width="19" height="20" viewBox="0 0 19 20" fill="none" xmlns="http://www.w3.org/2000/svg">
<g opacity="0.8">
<path d="M14.0625 15.8333H4.6875C4.25781 15.8333 3.90625 15.4583 3.90625 15V5C3.90625 4.54167 4.25781 4.16667 4.6875 4.16667H8.59375C9.02344 4.16667 9.375 3.79167 9.375 3.33333C9.375 2.875 9.02344 2.5 8.59375 2.5H3.90625C3.49185 2.5 3.09442 2.67559 2.8014 2.98816C2.50837 3.30072 2.34375 3.72464 2.34375 4.16667V15.8333C2.34375 16.75 3.04688 17.5 3.90625 17.5H14.8438C15.7031 17.5 16.4062 16.75 16.4062 15.8333V10.8333C16.4062 10.375 16.0547 10 15.625 10C15.1953 10 14.8438 10.375 14.8438 10.8333V15C14.8438 15.4583 14.4922 15.8333 14.0625 15.8333ZM10.9375 3.33333C10.9375 3.79167 11.2891 4.16667 11.7188 4.16667H13.7422L6.60938 11.775C6.4633 11.9308 6.38123 12.1421 6.38123 12.3625C6.38123 12.5829 6.4633 12.7942 6.60938 12.95C6.75545 13.1058 6.95357 13.1934 7.16016 13.1934C7.36674 13.1934 7.56486 13.1058 7.71094 12.95L14.8438 5.34167V7.5C14.8438 7.95833 15.1953 8.33333 15.625 8.33333C16.0547 8.33333 16.4062 7.95833 16.4062 7.5V3.33333C16.4062 2.875 16.0547 2.5 15.625 2.5H11.7188C11.2891 2.5 10.9375 2.875 10.9375 3.33333Z" fill="#7E7E7E"/>
</g>
</svg>
